<svg id="chatting" xmlns="http://www.w3.org/2000/svg" width="65.113" height="57.07" viewBox="0 0 65.113 57.07">
  <path id="Path_3643" data-name="Path 3643" d="M45.023,31.622H7.363A7.371,7.371,0,0,0,0,38.985v33A1.909,1.909,0,0,0,3.015,73.54L13.5,66.057a5.134,5.134,0,0,1,3-.959H39.568a7.371,7.371,0,0,0,7.363-7.363V33.53A1.908,1.908,0,0,0,45.023,31.622ZM35.757,54.731H13.717a1.908,1.908,0,1,1,0-3.815h22.04a1.908,1.908,0,1,1,0,3.815Zm0-8.9H13.717a1.908,1.908,0,1,1,0-3.815h22.04a1.908,1.908,0,1,1,0,3.815Z" transform="translate(0 -31.622)" fill="#fff"/>
  <path id="Path_3644" data-name="Path 3644" d="M189.9,155.327v33a1.909,1.909,0,0,1-3.015,1.553L176.4,182.4a5.134,5.134,0,0,0-3-.959H150.333a7.372,7.372,0,0,1-7.363-7.365v-3.617h21.386a11.191,11.191,0,0,0,11.179-11.179V147.962h7A7.372,7.372,0,0,1,189.9,155.327Z" transform="translate(-124.788 -133.167)" fill="#fff"/>
</svg>
