<svg id="lamp" xmlns="http://www.w3.org/2000/svg" width="62.058" height="62.058" viewBox="0 0 62.058 62.058">
  <path id="Path_3645" data-name="Path 3645" d="M13.189,8.939A1.94,1.94,0,0,1,11.25,7V1.939a1.939,1.939,0,0,1,3.879,0V7A1.94,1.94,0,0,1,13.189,8.939Z" transform="translate(17.84)" fill="#fff"/>
  <path id="Path_3646" data-name="Path 3646" d="M19.76,10.754a1.941,1.941,0,0,1-1.37-3.312l3.579-3.579a1.94,1.94,0,1,1,2.743,2.743l-3.579,3.579A1.945,1.945,0,0,1,19.76,10.754Z" transform="translate(28.26 5.224)" fill="#fff"/>
  <path id="Path_3647" data-name="Path 3647" d="M27.543,15.129h-5.06a1.939,1.939,0,0,1,0-3.879h5.06a1.939,1.939,0,0,1,0,3.879Z" transform="translate(32.576 17.84)" fill="#fff"/>
  <path id="Path_3648" data-name="Path 3648" d="M23.339,25.28a1.924,1.924,0,0,1-1.37-.569l-3.579-3.579a1.94,1.94,0,1,1,2.743-2.743l3.579,3.579a1.941,1.941,0,0,1-1.373,3.312Z" transform="translate(28.26 28.259)" fill="#fff"/>
  <path id="Path_3649" data-name="Path 3649" d="M5.234,25.28a1.941,1.941,0,0,1-1.37-3.312l3.579-3.579a1.94,1.94,0,0,1,2.743,2.743L6.607,24.711A1.934,1.934,0,0,1,5.234,25.28Z" transform="translate(5.225 28.259)" fill="#fff"/>
  <path id="Path_3650" data-name="Path 3650" d="M7,15.129H1.939a1.939,1.939,0,0,1,0-3.879H7a1.939,1.939,0,0,1,0,3.879Z" transform="translate(0 17.84)" fill="#fff"/>
  <path id="Path_3651" data-name="Path 3651" d="M8.813,10.754a1.924,1.924,0,0,1-1.37-.569L3.863,6.606A1.94,1.94,0,0,1,6.607,3.862l3.579,3.579a1.941,1.941,0,0,1-1.373,3.312Z" transform="translate(5.225 5.224)" fill="#fff"/>
  <path id="Path_3652" data-name="Path 3652" d="M24.515,21v3.232a4.547,4.547,0,0,1-4.525,4.525H13.525C11.353,28.757,9,27.1,9,23.482V21Z" transform="translate(14.272 33.301)" fill="#fff"/>
  <path id="Path_3653" data-name="Path 3653" d="M34.506,9.032A18.1,18.1,0,1,0,12.216,37.552a7.808,7.808,0,0,1,2.948,4.939v.026a.44.44,0,0,1,.181-.026H30.86a.233.233,0,0,1,.129.026v-.026A8.625,8.625,0,0,1,34.3,37.32a18.11,18.11,0,0,0,.207-28.288ZM32.8,24.391a1.953,1.953,0,0,1-1.939-1.939,7.107,7.107,0,0,0-7.111-7.111,1.939,1.939,0,1,1,0-3.879A11.013,11.013,0,0,1,34.738,22.452,1.953,1.953,0,0,1,32.8,24.391Z" transform="translate(7.927 7.931)" fill="#fff"/>
  <path id="Path_3654" data-name="Path 3654" d="M8.93,19.5h.181a.44.44,0,0,0-.181.026Z" transform="translate(14.161 30.922)" fill="#fff"/>
  <path id="Path_3655" data-name="Path 3655" d="M15.129,19.5v.026A.233.233,0,0,0,15,19.5Z" transform="translate(23.786 30.922)" fill="#fff"/>
</svg>
