<svg id="checked_2_" data-name="checked (2)" xmlns="http://www.w3.org/2000/svg" width="33.333" height="33.333" viewBox="0 0 33.333 33.333">
  <g id="Group_225" data-name="Group 225" transform="translate(7.914 4.188)">
    <g id="Group_224" data-name="Group 224">
      <path id="Path_3657" data-name="Path 3657" d="M146.033,64.7a1.256,1.256,0,0,0-1.776,0L129.186,79.726l-5.438-5.906a1.256,1.256,0,0,0-1.848,1.7l6.323,6.867a1.255,1.255,0,0,0,.9.4h.027a1.258,1.258,0,0,0,.887-.366l16-15.955A1.256,1.256,0,0,0,146.033,64.7Z" transform="translate(-121.568 -64.327)" fill="#188dcd"/>
    </g>
  </g>
  <g id="Group_227" data-name="Group 227">
    <g id="Group_226" data-name="Group 226">
      <path id="Path_3658" data-name="Path 3658" d="M32.077,15.41a1.256,1.256,0,0,0-1.256,1.256A14.154,14.154,0,1,1,16.667,2.513a1.256,1.256,0,1,0,0-2.513A16.667,16.667,0,1,0,33.333,16.667,1.256,1.256,0,0,0,32.077,15.41Z" fill="#188dcd"/>
    </g>
  </g>
</svg>
