<svg xmlns="http://www.w3.org/2000/svg" xmlns:xlink="http://www.w3.org/1999/xlink" width="820" height="281" viewBox="0 0 820 281">
  <defs>
    <clipPath id="clip-path">
      <rect id="Rectangle_2490" data-name="Rectangle 2490" width="820" height="281" transform="translate(960 1168)" fill="#20409a"/>
    </clipPath>
  </defs>
  <g id="Mask_Group_4" data-name="Mask Group 4" transform="translate(-960 -1168)" clip-path="url(#clip-path)">
    <g id="graduated" transform="translate(1446.204 1200)" opacity="0.16">
      <path id="Path_3672" data-name="Path 3672" d="M252.631,190.194l-17.086-5.017L198.373,160.9v-5.563a49.476,49.476,0,0,0,19.527-34.75,11.36,11.36,0,0,0,9.533-11.2V94.09c0-.059-.006-.117-.009-.176V74.535a8.408,8.408,0,0,0,3.515-6.861V49.939l25.653-4.37a9.094,9.094,0,0,0,1.23-17.632L171.34.43a9.048,9.048,0,0,0-5.514,0L79.343,27.938a9.125,9.125,0,0,0-2.833,15.876V67.005H76.3a8.842,8.842,0,0,0-8.832,8.832V87.349l-5.7,33.463A9.493,9.493,0,0,0,71.123,131.9h19.3a9.493,9.493,0,0,0,9.357-11.086l-5.7-33.462V75.837a8.842,8.842,0,0,0-8.832-8.832H85.04V46.33l21.205,3.612V67.674a8.414,8.414,0,0,0,3.5,6.848l.008,19.57v15.3a11.359,11.359,0,0,0,9.533,11.2,49.479,49.479,0,0,0,19.508,34.737v5.589l-37.164,24.275L84.556,190.2a43.363,43.363,0,0,0-31.168,41.63v12.709a4.264,4.264,0,1,0,8.529,0V231.827A35.047,35.047,0,0,1,86.958,198.38l15.907-4.669,63.55,37.762a4.314,4.314,0,0,0,4.357,0l63.554-37.764,15.905,4.669a35.049,35.049,0,0,1,25.039,33.446v41.188a9.592,9.592,0,0,1-9.581,9.581h-18.8V264.211a4.264,4.264,0,0,0-8.529,0v18.382H98.8V264.211a4.264,4.264,0,0,0-8.529,0v18.382H71.5a9.592,9.592,0,0,1-9.581-9.581V264.47a4.264,4.264,0,0,0-8.529,0v8.541A18.129,18.129,0,0,0,71.5,291.121H265.687A18.129,18.129,0,0,0,283.8,273.011V231.823a43.365,43.365,0,0,0-31.165-41.629ZM90.426,123.368h-19.3a.961.961,0,0,1-.95-1.125l5.157-30.27H86.219l5.157,30.269A.961.961,0,0,1,90.426,123.368ZM85.554,75.837v7.608H75.995V75.837a.3.3,0,0,1,.3-.3h8.951A.3.3,0,0,1,85.554,75.837ZM153.34,212.183l1.7,2.609L111.5,188.922l27.634-18.05A89.576,89.576,0,0,0,153.34,212.183Zm-.03-18.408a109.657,109.657,0,0,0,30.562,0,81.444,81.444,0,0,1-7.178,13.758l-8.1,12.454-8.1-12.454a81.449,81.449,0,0,1-7.178-13.758Zm30.532,18.408a89.569,89.569,0,0,0,14.2-41.311l27.634,18.049-43.536,25.87Zm24.945-136.06H218.9v13.7h-5.017a5.1,5.1,0,0,1-5.091-5.091V76.123ZM81.928,36.065,168.412,8.557a.56.56,0,0,1,.343,0l86.483,27.508a.476.476,0,0,1,.392.578c-.031.444-.284.486-.47.518l-28.594,4.87L215.832,40.7a4.264,4.264,0,1,0-1.046,8.464l7.625.943V67.594l-107.638,0V50.111l44.127-5.46a78.992,78.992,0,0,1,19.366,0l16.7,2.066a4.264,4.264,0,1,0,1.047-8.464l-16.7-2.066a87.482,87.482,0,0,0-21.46,0l-47.247,5.846L82,37.162c-.185-.032-.438-.074-.47-.518a.476.476,0,0,1,.393-.578Zm36.349,53.76-.006-13.7H128.4v8.612a5.1,5.1,0,0,1-5.091,5.091h-5.027Zm9.386,28.568a6.608,6.608,0,0,0-6.57-6.193,2.817,2.817,0,0,1-2.814-2.813V98.354H123.3a13.635,13.635,0,0,0,13.62-13.619V76.123h63.335v8.612a13.635,13.635,0,0,0,13.62,13.619H218.9v11.034a2.817,2.817,0,0,1-2.814,2.813,6.608,6.608,0,0,0-6.57,6.193,41.012,41.012,0,0,1-81.857,0Zm40.929,46.928a49.221,49.221,0,0,0,21.253-4.818v2.7a81.273,81.273,0,0,1-2.878,21.42,100.7,100.7,0,0,1-36.751,0,81.267,81.267,0,0,1-2.878-21.42c0-.09-.013-.179-.018-.268,0-.018,0-.035,0-.053V160.5a49.227,49.227,0,0,0,21.272,4.826Z" transform="translate(0 0)" fill="#fff"/>
    </g>
  </g>
</svg>
