<svg xmlns="http://www.w3.org/2000/svg" width="31.25" height="31.25" viewBox="0 0 31.25 31.25">
  <g id="right" transform="translate(0 0.074)">
    <path id="Path_71" data-name="Path 71" d="M104.391,140.426a.724.724,0,0,0-1.025,1.025l5.487,5.487H94.274a.727.727,0,1,0,0,1.454h14.572l-5.487,5.487a.724.724,0,0,0,0,1.025.714.714,0,0,0,.516.211.745.745,0,0,0,.516-.211l6.723-6.723a.72.72,0,0,0,.211-.516.749.749,0,0,0-.211-.516Zm0,0" transform="translate(-88.096 -132.112)" fill="#fff"/>
    <path id="Path_72" data-name="Path 72" d="M15.627-.074A15.626,15.626,0,1,0,26.674,4.5,15.624,15.624,0,0,0,15.627-.074Zm0,29.8A14.173,14.173,0,1,1,29.8,15.552,14.191,14.191,0,0,1,15.627,29.725Zm0,0" fill="#fff"/>
  </g>
</svg>
