<svg id="australia" xmlns="http://www.w3.org/2000/svg" width="61" height="61" viewBox="0 0 61 61">
  <path id="Path_3595" data-name="Path 3595" d="M61,30.5a30.5,30.5,0,0,1-61,0C0,30.507,30.5,0,30.5,0A30.5,30.5,0,0,1,61,30.5Z" fill="#0052b4"/>
  <g id="Group_184" data-name="Group 184">
    <path id="Path_3596" data-name="Path 3596" d="M255.962,0h0Z" transform="translate(-225.462)" fill="#f0f0f0"/>
    <path id="Path_3597" data-name="Path 3597" d="M255.315,255.4h.082v-.082Z" transform="translate(-224.897 -224.897)" fill="#f0f0f0"/>
    <path id="Path_3598" data-name="Path 3598" d="M30.5,15.914V0h-.005A30.5,30.5,0,0,0,0,30.5H15.913V21.54L24.874,30.5h5.545l.082-.082V24.875l-8.961-8.961H30.5Z" transform="translate(0 -0.001)" fill="#f0f0f0"/>
  </g>
  <g id="Group_185" data-name="Group 185" transform="translate(3.978 3.978)">
    <path id="Path_3599" data-name="Path 3599" d="M44.843,33.391A30.646,30.646,0,0,0,33.391,44.843v15.07h7.957V41.348H59.913V33.391Z" transform="translate(-33.391 -33.391)" fill="#d80027"/>
    <path id="Path_3600" data-name="Path 3600" d="M148.153,144.4l-10.836-10.836h-3.751l14.587,14.587h0Z" transform="translate(-121.631 -121.632)" fill="#d80027"/>
  </g>
  <g id="Group_186" data-name="Group 186" transform="translate(11.594 13.261)">
    <path id="Path_3601" data-name="Path 3601" d="M104.113,300.522l1.674,3.5,3.78-.874-1.693,3.491,3.04,2.411-3.785.853.011,3.88-3.027-2.427-3.027,2.427.011-3.88-3.785-.853,3.04-2.411-1.693-3.491,3.78.874Z" transform="translate(-97.312 -277.978)" fill="#f0f0f0"/>
    <path id="Path_3602" data-name="Path 3602" d="M358.143,356.174l.837,1.75,1.89-.437-.847,1.746,1.52,1.205-1.892.427.005,1.94-1.513-1.214L356.63,362.8l.005-1.94-1.892-.427,1.52-1.205-.846-1.746,1.89.437Z" transform="translate(-324.073 -327)" fill="#f0f0f0"/>
    <path id="Path_3603" data-name="Path 3603" d="M292.792,200.348l.837,1.75,1.89-.437-.846,1.746,1.52,1.205-1.892.427.005,1.94-1.513-1.214-1.513,1.214.005-1.94-1.892-.427,1.52-1.205-.846-1.746,1.89.437Z" transform="translate(-266.507 -189.739)" fill="#f0f0f0"/>
    <path id="Path_3604" data-name="Path 3604" d="M358.143,111.3l.837,1.75,1.89-.437-.846,1.746,1.52,1.205-1.892.427.005,1.94-1.513-1.214-1.513,1.214.005-1.94-1.892-.427,1.52-1.205-.846-1.746,1.89.437Z" transform="translate(-324.073 -111.304)" fill="#f0f0f0"/>
    <path id="Path_3605" data-name="Path 3605" d="M415.227,178.087l.837,1.75,1.89-.437-.846,1.746,1.52,1.205-1.892.427.005,1.94-1.513-1.214-1.513,1.214.005-1.94-1.892-.427,1.52-1.205L412.5,179.4l1.89.437Z" transform="translate(-374.355 -170.13)" fill="#f0f0f0"/>
    <path id="Path_3606" data-name="Path 3606" d="M378.932,256l.658,2.026h2.13L380,259.278l.658,2.026-1.724-1.252-1.723,1.252.658-2.026-1.724-1.252h2.13Z" transform="translate(-342.923 -238.761)" fill="#f0f0f0"/>
  </g>
</svg>
