<svg xmlns="http://www.w3.org/2000/svg" width="52.661" height="52.661" viewBox="0 0 52.661 52.661">
  <g id="education" transform="translate(0 0.001)">
    <path id="Path_3695" data-name="Path 3695" d="M192.287,145.763,182,142.132v6.981a1.543,1.543,0,0,0,1.543,1.543h20.571a1.543,1.543,0,0,0,1.543-1.543v-6.981l-10.288,3.631a4.628,4.628,0,0,1-3.081,0Z" transform="translate(-163.281 -127.514)" fill="#fff"/>
    <path id="Path_3696" data-name="Path 3696" d="M113.029,9.168l17.485,6.171a1.543,1.543,0,0,0,1.027,0L146.97,9.894v6.048a1.543,1.543,0,0,0,3.086,0V7.713a1.543,1.543,0,0,0-1.029-1.455L131.541.087a1.542,1.542,0,0,0-1.027,0L113.029,6.259a1.543,1.543,0,0,0,0,2.91Z" transform="translate(-100.48)" fill="#fff"/>
    <path id="Path_3697" data-name="Path 3697" d="M147.459,290.474l-5.836,7.631a6.172,6.172,0,0,1-4.9,2.423H125.885a1.543,1.543,0,0,1,0-3.086h9.392a3.657,3.657,0,0,0,3.67-3.67,3.6,3.6,0,0,0-3.6-3.53h-10.8a8.935,8.935,0,0,0-11.386-.83l-1.162.83v17.485h26.831a9.257,9.257,0,0,0,7.787-4.251l6.021-9.366a3.167,3.167,0,0,0-5.18-3.636Z" transform="translate(-100.48 -258.153)" fill="#fff"/>
    <path id="Path_3698" data-name="Path 3698" d="M6.891,282H1.543A1.543,1.543,0,0,0,0,283.543v20.571a1.543,1.543,0,0,0,1.543,1.543H6.891a1.543,1.543,0,0,0,1.543-1.543V283.543A1.543,1.543,0,0,0,6.891,282Z" transform="translate(0 -252.996)" fill="#fff"/>
  </g>
</svg>
