<svg id="globe" xmlns="http://www.w3.org/2000/svg" width="57.662" height="57.662" viewBox="0 0 57.662 57.662">
  <g id="Group_2459" data-name="Group 2459">
    <path id="Path_3694" data-name="Path 3694" d="M28.831,0A28.831,28.831,0,1,0,57.662,28.831,28.864,28.864,0,0,0,28.831,0Zm0,52.856a23.938,23.938,0,0,1-16.818-6.9V42.045a4.519,4.519,0,0,1,1.1-2.73,5.564,5.564,0,0,0,1.3-3.276c0-2.291-2.068-2.523-3.18-2.648a3.344,3.344,0,0,1-1.977-.6,7.6,7.6,0,0,1-1-1.545,9.261,9.261,0,0,0-3.381-3.9A24.036,24.036,0,0,1,28.831,4.805c.659,0,1.308.047,1.954.1a2.433,2.433,0,0,0-.4.253,1.2,1.2,0,0,0,.05,1.747,3.208,3.208,0,0,1,.531.577c-.027.057-.248.434-1.477,1.058-2.03,1.029-4.373,3.135-4.722,5.326a2.926,2.926,0,0,0,.812,2.6,1.2,1.2,0,0,0,.849.352,9.373,9.373,0,0,0,4.2-1.213,9.122,9.122,0,0,1,4.2-1.19c4.715,0,8.409,1.056,8.409,2.4,0,.494-.154.645-.212.7-.59.581-2.6.543-4.366.516-.468-.008-.947-.016-1.428-.016a5.2,5.2,0,0,1-2.722-.515,6.56,6.56,0,0,0-3.285-.686c-1.98,0-5.66.358-8.057,2.754-1.96,1.959-1.753,4.3-1.617,5.853.032.357.063.695.063,1,0,2.366,2.418,3.6,4.805,3.6,3.672,0,6.846.685,7.208,1.2a6.957,6.957,0,0,0,.721,3,4.191,4.191,0,0,1,.48,1.805,1.2,1.2,0,0,1-.33.97,3.781,3.781,0,0,0-.872,2.634c0,2.528,2.434,5.3,2.711,5.61a1.2,1.2,0,0,0,.893.4,1.173,1.173,0,0,0,.3-.038c.707-.182,6.91-1.889,6.91-5.969a2.288,2.288,0,0,1,1-2.147,3.277,3.277,0,0,0,1.4-2.658c0-.963,1.709-3.449,3.293-5.2a1.2,1.2,0,0,0-.154-1.755c-.934-.724-3.512-3.081-4.376-5.367A6.87,6.87,0,0,1,47.2,23.674a2,2,0,0,0,1.546.57,6.252,6.252,0,0,0,3.224-1.783,23.948,23.948,0,0,1-23.141,30.4Z" fill="#fff"/>
  </g>
</svg>
