<?xml version="1.0" standalone="no"?>
<!DOCTYPE svg PUBLIC "-//W3C//DTD SVG 20010904//EN"
 "http://www.w3.org/TR/2001/REC-SVG-20010904/DTD/svg10.dtd">
<svg version="1.0" xmlns="http://www.w3.org/2000/svg"
 width="696.000000pt" height="785.000000pt" viewBox="0 0 696.000000 785.000000"
 preserveAspectRatio="xMidYMid meet">

<g transform="translate(0.000000,785.000000) scale(0.100000,-0.100000)"
fill="#000000" stroke="none">
<path d="M0 3925 l0 -3925 3480 0 3480 0 0 3925 0 3925 -3480 0 -3480 0 0
-3925z m3072 3369 l251 -186 59 27 c71 32 101 28 124 -16 19 -38 12 -73 -21
-95 l-25 -16 65 -50 c47 -35 71 -47 85 -43 11 3 93 40 182 81 89 41 184 81
212 89 88 26 236 11 260 -27 15 -25 -28 -109 -86 -168 -50 -51 -94 -74 -330
-176 l-137 -59 -5 -40 c-3 -22 -7 -61 -10 -87 l-5 -47 29 11 c55 19 102 -34
86 -97 -5 -19 -21 -32 -61 -50 -34 -15 -58 -33 -64 -47 -5 -13 -21 -152 -35
-310 -15 -159 -29 -294 -32 -301 -4 -12 -113 -71 -119 -65 -2 2 -33 194 -71
428 -37 234 -71 429 -75 434 -8 9 -219 -78 -445 -185 -137 -64 -125 -47 -139
-199 -12 -131 -13 -135 -54 -159 -22 -11 -43 -21 -48 -21 -11 0 -53 265 -53
336 0 50 -1 51 -130 205 l-129 154 32 17 c18 9 39 17 48 18 9 0 63 -34 120
-75 57 -41 111 -75 119 -75 15 0 324 131 481 203 l90 42 -279 345 -280 345 46
22 c26 12 58 22 71 22 15 1 108 -62 273 -185z m-708 -1042 c66 -155 76 -186
65 -197 -8 -7 -48 -27 -89 -45 -204 -85 -474 -251 -666 -408 -146 -119 -359
-341 -470 -487 -794 -1056 -773 -2503 52 -3545 87 -109 344 -367 454 -454 195
-155 458 -314 673 -406 1124 -481 2430 -223 3277 646 235 241 410 485 554 772
226 450 340 1003 307 1491 -46 682 -268 1248 -696 1776 -109 135 -112 146 -12
43 254 -260 491 -663 629 -1068 120 -353 164 -658 155 -1078 -5 -255 -17 -356
-63 -572 -112 -524 -387 -1051 -751 -1442 -190 -204 -356 -345 -583 -496 -836
-558 -1927 -674 -2870 -307 -268 104 -522 244 -742 407 -145 108 -187 145
-332 286 -523 512 -821 1100 -938 1845 -19 124 -22 182 -22 447 0 267 3 323
22 450 57 365 142 646 287 947 269 559 689 1030 1207 1353 154 96 419 230 448
227 22 -2 33 -22 104 -185z m-762 -2404 l3 -362 295 362 295 362 244 0 c230 0
243 -1 230 -17 -8 -10 -165 -196 -351 -415 l-336 -396 320 -389 c176 -213 347
-421 380 -460 l59 -73 -258 0 -258 0 -310 386 -310 387 -3 -387 -2 -386 -200
0 -200 0 0 875 0 875 200 0 200 0 2 -362z m1786 -195 c119 -304 219 -553 222
-553 3 0 102 249 221 553 l217 552 217 3 c139 1 216 -1 213 -7 -1 -6 -167
-400 -368 -876 l-365 -865 -135 0 -135 0 -362 858 c-199 471 -365 865 -369
875 -6 16 7 17 211 15 l216 -3 217 -552z m2326 -305 c186 -475 341 -869 343
-875 4 -10 -41 -13 -204 -13 l-209 0 -64 165 -65 165 -330 -2 -330 -3 -65
-162 -65 -163 -209 0 c-183 0 -207 2 -202 15 26 68 689 1722 693 1728 2 4 86
7 186 7 l183 0 338 -862z"/>
<path d="M5180 3655 c-37 -96 -200 -541 -200 -547 0 -4 95 -8 210 -8 116 0
210 3 210 8 0 4 -47 135 -104 292 -99 271 -105 284 -116 255z"/>
</g>
</svg>
