<svg xmlns="http://www.w3.org/2000/svg" width="56.342" height="33.894" viewBox="0 0 56.342 33.894">
  <path id="mortarboard" d="M55.848,12.3,28.511.075a.831.831,0,0,0-.68,0L16.747,5.03a.834.834,0,0,0,.681,1.522l10.742-4.8L38,6.146v6.139a34.174,34.174,0,0,0-9.811-2.059h-.046a34.434,34.434,0,0,0-10.96,2.5,28.408,28.408,0,0,0-6.182,3.439.833.833,0,0,0-.291.4l-7.84-3.506,10.99-4.914a.833.833,0,0,0-.68-1.522L.493,12.3a.834.834,0,0,0,0,1.522l10.175,4.55v3.991a.833.833,0,1,0,1.667,0v-5.1a26.965,26.965,0,0,1,5.483-2.99,33.518,33.518,0,0,1,10.353-2.379A33.346,33.346,0,0,1,38,14.066v8.282a2.944,2.944,0,0,0-.29,5.545l-.583,1.534a31.144,31.144,0,0,0-8.962,2.684c-4.945-2.6-13.227-3.332-15.835-3.5V26.27a.833.833,0,1,0-1.667,0V29.4a.834.834,0,0,0,.8.833c.109,0,10.941.511,16.293,3.559a.833.833,0,0,0,.825,0,26.7,26.7,0,0,1,7.858-2.54l-.493,1.3a.833.833,0,0,0,.779,1.13H40.95a.834.834,0,0,0,.779-1.13l-.754-1.983c2.268-.26,3.882-.333,3.9-.334a.834.834,0,0,0,.8-.833V26.269a.833.833,0,1,0-1.667,0v2.339c-.778.052-2.071.156-3.641.346l-.4-1.06a2.944,2.944,0,0,0-.29-5.545V14.772a26.4,26.4,0,0,1,4.334,2.49v5.1a.833.833,0,1,0,1.667,0V18.37l10.175-4.55a.833.833,0,0,0,0-1.522ZM37.935,32.007l.9-2.377.9,2.377Zm2.181-6.834a1.278,1.278,0,1,1-1.278-1.278A1.279,1.279,0,0,1,40.116,25.172Zm5.51-8.607a.833.833,0,0,0-.291-.4,28.158,28.158,0,0,0-5.664-3.219V6.891l13.794,6.168Zm0,0" transform="translate(0 -0.002)" fill="#fff"/>
</svg>
