<svg xmlns="http://www.w3.org/2000/svg" width="60.5" height="46.221" viewBox="0 0 60.5 46.221">
  <g id="open-book" transform="translate(0 -35.048)">
    <g id="Group_2458" data-name="Group 2458" transform="translate(0 35.048)">
      <g id="Group_2457" data-name="Group 2457" transform="translate(0 0)">
        <path id="Path_3690" data-name="Path 3690" d="M36.992,35.049h-.005a2.134,2.134,0,0,0-1.517.628,2.156,2.156,0,0,0-.637,1.537V69.677A2.172,2.172,0,0,0,37,71.842C42.04,71.854,50.483,72.9,56.307,79V45.025a2.075,2.075,0,0,0-.3-1.1C51.229,36.23,42.043,35.061,36.992,35.049Z" transform="translate(-27.737 -35.049)" fill="#fff"/>
        <path id="Path_3691" data-name="Path 3691" d="M178.225,69.677V37.213a2.156,2.156,0,0,0-.637-1.537,2.134,2.134,0,0,0-1.517-.628h-.005c-5.05.012-14.237,1.182-19.017,8.88a2.075,2.075,0,0,0-.3,1.1V79c5.824-6.1,14.267-7.145,19.306-7.157A2.172,2.172,0,0,0,178.225,69.677Z" transform="translate(-124.82 -35.048)" fill="#fff"/>
        <path id="Path_3692" data-name="Path 3692" d="M194.886,71.8h-1.57V98.943a5.539,5.539,0,0,1-5.521,5.525c-4.274.01-11.322.846-16.313,5.57,8.633-2.114,17.733-.74,22.919.442a2.165,2.165,0,0,0,2.649-2.109V73.966A2.167,2.167,0,0,0,194.886,71.8Z" transform="translate(-136.55 -64.314)" fill="#fff"/>
        <path id="Path_3693" data-name="Path 3693" d="M3.734,98.943V71.8H2.165A2.167,2.167,0,0,0,0,73.966v34.405a2.165,2.165,0,0,0,2.649,2.109c5.186-1.182,14.287-2.556,22.919-.442-4.991-4.724-12.039-5.56-16.313-5.57A5.539,5.539,0,0,1,3.734,98.943Z" transform="translate(0 -64.314)" fill="#fff"/>
      </g>
    </g>
  </g>
</svg>
